<svg width="1646" height="546" viewBox="0 0 1646 546" fill="none" xmlns="http://www.w3.org/2000/svg">
<path d="M191.739 67L238.261 67L429 453L381 453L296.5 305L244.5 226L216.163 146.168L220.815 148.652H209.185L213.837 146.168L96 381L47.5 453L1 453L191.739 67Z" fill="white"/>
<path d="M502 150H626.932C652.179 150 671.913 157.108 686.133 171.323C700.643 185.538 707.898 204.541 707.898 228.33C707.898 239.644 706.302 249.218 703.109 257.051C699.917 264.884 695.854 271.411 690.921 276.633C685.988 281.565 680.619 285.336 674.815 287.947C669.011 290.268 663.642 291.864 658.709 292.734V295.345C664.222 295.635 670.317 297.086 676.991 299.697C683.956 302.308 690.486 306.514 696.58 312.316C702.674 317.829 707.753 325.081 711.815 334.075C716.168 342.778 718.345 353.367 718.345 365.842C718.345 378.316 716.314 389.921 712.251 400.655C708.478 411.389 703.109 420.673 696.145 428.505C689.18 436.338 680.909 442.576 671.332 447.218C661.756 451.569 651.308 453.745 639.991 453.745H502V150ZM538.565 421.543H628.673C644.344 421.543 656.677 417.626 665.673 409.793C674.67 401.67 679.168 389.921 679.168 374.545V359.749C679.168 344.374 674.67 332.769 665.673 324.936C656.677 316.813 644.344 312.752 628.673 312.752H538.565V421.543ZM538.565 281.42H622.579C637.089 281.42 648.406 277.793 656.532 270.541C664.658 263.288 668.721 252.844 668.721 239.209V224.413C668.721 210.778 664.658 200.334 656.532 193.081C648.406 185.829 637.089 182.202 622.579 182.202H538.565V281.42Z" fill="white"/>
<path d="M846.953 458.967C831.572 458.967 817.642 456.211 805.164 450.699C792.975 445.187 782.383 437.354 773.387 427.2C764.681 416.756 757.861 404.426 752.928 390.211C748.284 375.705 745.963 359.459 745.963 341.473C745.963 323.776 748.284 307.675 752.928 293.169C757.861 278.664 764.681 266.334 773.387 256.18C782.383 245.736 792.975 237.758 805.164 232.246C817.642 226.734 831.572 223.978 846.953 223.978C862.043 223.978 875.538 226.734 887.436 232.246C899.334 237.758 909.491 245.446 917.907 255.31C926.323 264.884 932.707 276.343 937.06 289.688C941.703 303.033 944.025 317.684 944.025 333.64V350.176H782.528V360.62C782.528 370.193 783.979 379.187 786.881 387.6C790.073 395.723 794.426 402.831 799.94 408.923C805.744 415.015 812.709 419.802 820.835 423.284C829.25 426.765 838.682 428.505 849.129 428.505C863.349 428.505 875.683 425.169 886.13 418.497C896.867 411.824 905.138 402.251 910.942 389.776L935.754 407.618C928.499 422.993 917.181 435.468 901.801 445.042C886.42 454.325 868.137 458.967 846.953 458.967ZM846.953 253.134C837.376 253.134 828.67 254.875 820.835 258.356C812.999 261.547 806.18 266.189 800.375 272.281C794.862 278.374 790.509 285.626 787.316 294.04C784.124 302.163 782.528 311.156 782.528 321.02V324.066H906.589V319.279C906.589 299.262 901.075 283.305 890.048 271.411C879.31 259.226 864.945 253.134 846.953 253.134Z" fill="white"/>
<path d="M974.204 453.745V229.2H1009.03V270.541H1011.2C1015.27 259.807 1022.52 250.233 1032.97 241.82C1043.42 233.407 1057.78 229.2 1076.06 229.2H1089.56V264.013H1069.1C1050.24 264.013 1035.44 267.64 1024.7 274.892C1014.25 281.855 1009.03 290.703 1009.03 301.437V453.745H974.204Z" fill="white"/>
<path d="M1306.39 478.549C1306.39 501.758 1297.25 518.73 1278.97 529.464C1260.98 540.488 1233.84 546 1197.57 546C1162.45 546 1137.21 541.213 1121.83 531.64C1106.44 522.066 1098.75 508.431 1098.75 490.734C1098.75 478.549 1101.95 468.976 1108.33 462.013C1114.72 455.341 1123.42 450.409 1134.45 447.218V442.431C1121.1 436.048 1114.43 425.604 1114.43 411.099C1114.43 399.785 1118.05 391.226 1125.31 385.424C1132.56 379.332 1141.85 374.835 1153.17 371.934V370.193C1139.82 363.811 1129.37 354.673 1121.83 342.778C1114.57 330.884 1110.94 317.103 1110.94 301.437C1110.94 290.123 1112.97 279.679 1117.04 270.105C1121.1 260.532 1126.76 252.409 1134.01 245.736C1141.56 238.774 1150.41 233.407 1160.57 229.635C1171.01 225.864 1182.62 223.978 1195.39 223.978C1211.35 223.978 1225.57 226.879 1238.05 232.681V228.765C1238.05 220.062 1240.08 212.954 1244.15 207.442C1248.21 201.64 1254.88 198.738 1264.17 198.738H1297.69V229.2H1255.03V243.56C1263.15 250.523 1269.39 258.936 1273.75 268.8C1278.39 278.374 1280.71 289.253 1280.71 301.437C1280.71 312.752 1278.68 323.196 1274.62 332.769C1270.55 342.343 1264.75 350.611 1257.2 357.574C1249.95 364.246 1241.1 369.468 1230.65 373.24C1220.2 377.011 1208.6 378.897 1195.83 378.897C1188.57 378.897 1181.32 378.171 1174.06 376.721C1166.52 378.752 1159.7 381.798 1153.6 385.859C1147.51 389.631 1144.46 394.998 1144.46 401.96C1144.46 408.633 1147.65 413.13 1154.04 415.451C1160.42 417.771 1168.69 418.932 1178.85 418.932H1226.73C1254.59 418.932 1274.76 424.299 1287.24 435.033C1300.01 445.477 1306.39 459.982 1306.39 478.549ZM1273.75 481.16C1273.75 472.167 1270.26 464.914 1263.3 459.402C1256.62 454.18 1244.58 451.569 1227.17 451.569H1152.3C1138.37 457.952 1131.4 468.105 1131.4 482.031C1131.4 491.895 1135.03 500.308 1142.28 507.27C1149.83 514.233 1162.45 517.714 1180.16 517.714H1212.37C1231.81 517.714 1246.9 514.668 1257.64 508.576C1268.38 502.484 1273.75 493.345 1273.75 481.16ZM1195.83 351.046C1210.63 351.046 1222.38 347.565 1231.09 340.602C1239.79 333.349 1244.15 322.325 1244.15 307.53V295.345C1244.15 280.549 1239.79 269.67 1231.09 262.708C1222.38 255.455 1210.63 251.829 1195.83 251.829C1181.03 251.829 1169.27 255.455 1160.57 262.708C1151.86 269.67 1147.51 280.549 1147.51 295.345V307.53C1147.51 322.325 1151.86 333.349 1160.57 340.602C1169.27 347.565 1181.03 351.046 1195.83 351.046Z" fill="white"/>
<path d="M1415.31 458.967C1399.93 458.967 1386 456.211 1373.52 450.699C1361.33 445.187 1350.74 437.354 1341.74 427.2C1333.04 416.756 1326.22 404.426 1321.29 390.211C1316.64 375.705 1314.32 359.459 1314.32 341.473C1314.32 323.776 1316.64 307.675 1321.29 293.169C1326.22 278.664 1333.04 266.334 1341.74 256.18C1350.74 245.736 1361.33 237.758 1373.52 232.246C1386 226.734 1399.93 223.978 1415.31 223.978C1430.4 223.978 1443.9 226.734 1455.79 232.246C1467.69 237.758 1477.85 245.446 1486.26 255.31C1494.68 264.884 1501.07 276.343 1505.42 289.688C1510.06 303.033 1512.38 317.684 1512.38 333.64V350.176H1350.89V360.62C1350.89 370.193 1352.34 379.187 1355.24 387.6C1358.43 395.723 1362.78 402.831 1368.3 408.923C1374.1 415.015 1381.07 419.802 1389.19 423.284C1397.61 426.765 1407.04 428.505 1417.49 428.505C1431.71 428.505 1444.04 425.169 1454.49 418.497C1465.23 411.824 1473.5 402.251 1479.3 389.776L1504.11 407.618C1496.86 422.993 1485.54 435.468 1470.16 445.042C1454.78 454.325 1436.5 458.967 1415.31 458.967ZM1415.31 253.134C1405.73 253.134 1397.03 254.875 1389.19 258.356C1381.36 261.547 1374.54 266.189 1368.73 272.281C1363.22 278.374 1358.87 285.626 1355.67 294.04C1352.48 302.163 1350.89 311.156 1350.89 321.02V324.066H1474.95V319.279C1474.95 299.262 1469.43 283.305 1458.41 271.411C1447.67 259.226 1433.3 253.134 1415.31 253.134Z" fill="white"/>
<path d="M1598.99 453.745C1586.8 453.745 1577.51 450.409 1571.13 443.736C1565.03 436.774 1561.99 427.78 1561.99 416.756V259.662H1524.99V229.2H1545.88C1553.43 229.2 1558.5 227.749 1561.12 224.848C1564.02 221.657 1565.47 216.29 1565.47 208.747V166.971H1596.81V229.2H1646V259.662H1596.81V423.284H1642.52V453.745H1598.99Z" fill="white"/>
</svg>
