<svg width="100" height="100" viewBox="0 0 100 100" fill="none" xmlns="http://www.w3.org/2000/svg">
  <rect width="100" height="100" rx="8" fill="#111111"/>
  <path d="M20 60L30 50L45 65L60 45L70 55L80 40" stroke="#a3e635" stroke-width="3" stroke-linecap="round" stroke-linejoin="round" stroke-dasharray="6 3"/>
  <path d="M20 70L30 60L45 75L60 55L70 65L80 50" stroke="#3b82f6" stroke-width="3" stroke-linecap="round" stroke-linejoin="round"/>
  <path d="M25 40L35 30L50 40L65 25L80 30" fill="#111111"/>
  <path d="M25 40L35 30L50 40L65 25L80 30" stroke="#94a3b8" stroke-width="3" stroke-linecap="round" stroke-linejoin="round"/>
  <path d="M30 35L30 30L35 30" stroke="#94a3b8" stroke-width="2" stroke-linecap="round" stroke-linejoin="round"/>
  <path d="M40 35L40 32L45 32" stroke="#94a3b8" stroke-width="2" stroke-linecap="round" stroke-linejoin="round"/>
  <path d="M55 35L55 30L60 30" stroke="#94a3b8" stroke-width="2" stroke-linecap="round" stroke-linejoin="round"/>
  <path d="M70 30L70 25L75 25" stroke="#94a3b8" stroke-width="2" stroke-linecap="round" stroke-linejoin="round"/>
  <path d="M32 19.088C31.616 19.088 31.28 19.016 30.992 18.872C30.704 18.728 30.48 18.528 30.32 18.272C30.16 18.016 30.072 17.728 30.056 17.408H31.248C31.264 17.568 31.32 17.696 31.416 17.792C31.512 17.888 31.64 17.936 31.8 17.936C31.96 17.936 32.08 17.888 32.16 17.792C32.24 17.688 32.28 17.536 32.28 17.336C32.28 17.136 32.232 16.984 32.136 16.88C32.04 16.776 31.904 16.724 31.728 16.724H31.232V15.776H31.72C31.864 15.776 31.976 15.724 32.056 15.62C32.144 15.516 32.188 15.376 32.188 15.2C32.188 15.04 32.152 14.92 32.08 14.84C32.008 14.752 31.904 14.708 31.768 14.708C31.632 14.708 31.52 14.756 31.432 14.852C31.352 14.94 31.304 15.064 31.288 15.224H30.096C30.128 14.568 30.3 14.08 30.612 13.76C30.932 13.44 31.36 13.28 31.896 13.28C32.24 13.28 32.536 13.352 32.784 13.496C33.04 13.632 33.236 13.824 33.372 14.072C33.508 14.312 33.576 14.588 33.576 14.9C33.576 15.196 33.512 15.444 33.384 15.644C33.264 15.836 33.1 15.968 32.892 16.04V16.08C33.164 16.152 33.368 16.292 33.504 16.5C33.648 16.708 33.72 16.964 33.72 17.268C33.72 17.612 33.644 17.916 33.492 18.18C33.348 18.444 33.136 18.652 32.856 18.804C32.584 18.956 32.264 19.032 31.896 19.032C31.512 19.088 31.28 19.088 32 19.088Z" fill="white"/>
</svg>