<svg width="100" height="100" viewBox="0 0 100 100" fill="none" xmlns="http://www.w3.org/2000/svg">
  <rect width="100" height="100" rx="8" fill="#111111"/>
  <path d="M30 65C30 56.716 36.716 50 45 50H55C63.284 50 70 56.716 70 65V65C70 73.284 63.284 80 55 80H45C36.716 80 30 73.284 30 65V65Z" fill="#444444"/>
  <path d="M42 35C42 30.582 45.582 27 50 27V27C54.418 27 58 30.582 58 35V50H42V35Z" fill="#444444"/>
  <path d="M24 40C24 35.582 27.582 32 32 32V32C36.418 32 40 35.582 40 40V50H24V40Z" fill="#444444"/>
  <path d="M60 40C60 35.582 63.582 32 68 32V32C72.418 32 76 35.582 76 40V50H60V40Z" fill="#444444"/>
  <path d="M42 65C42 62.791 43.791 61 46 61H54C56.209 61 58 62.791 58 65V65C58 67.209 56.209 69 54 69H46C43.791 69 42 67.209 42 65V65Z" fill="#111111"/>
  <path d="M51.5303 38.4697C51.8232 38.7626 52.3 38.7626 52.5929 38.4697L57.3787 33.6839C57.6716 33.391 57.6716 32.9142 57.3787 32.6213C57.0858 32.3284 56.609 32.3284 56.3161 32.6213L52 36.9374L47.6839 32.6213C47.391 32.3284 46.9142 32.3284 46.6213 32.6213C46.3284 32.9142 46.3284 33.391 46.6213 33.6839L51.5303 38.4697ZM51.25 22L51.25 38L52.75 38L52.75 22L51.25 22Z" fill="#84cc16"/>
  <path d="M35.5303 38.4697C35.8232 38.7626 36.3 38.7626 36.5929 38.4697L41.3787 33.6839C41.6716 33.391 41.6716 32.9142 41.3787 32.6213C41.0858 32.3284 40.609 32.3284 40.3161 32.6213L36 36.9374L31.6839 32.6213C31.391 32.3284 30.9142 32.3284 30.6213 32.6213C30.3284 32.9142 30.3284 33.391 30.6213 33.6839L35.5303 38.4697ZM35.25 22L35.25 38L36.75 38L36.75 22L35.25 22Z" fill="#84cc16"/>
  <path d="M67.5303 38.4697C67.8232 38.7626 68.3 38.7626 68.5929 38.4697L73.3787 33.6839C73.6716 33.391 73.6716 32.9142 73.3787 32.6213C73.0858 32.3284 72.609 32.3284 72.3161 32.6213L68 36.9374L63.6839 32.6213C63.391 32.3284 62.9142 32.3284 62.6213 32.6213C62.3284 32.9142 62.3284 33.391 62.6213 33.6839L67.5303 38.4697ZM67.25 22L67.25 38L68.75 38L68.75 22L67.25 22Z" fill="#84cc16"/>
  <path d="M28 78.0167H25.8C25.5613 78.0167 25.3613 77.9613 25.2 77.8507C25.0387 77.74 24.958 77.5947 24.958 77.4147C24.958 77.3107 24.9833 77.2113 25.034 77.1167C25.088 77.022 25.1567 76.938 25.24 76.8647L27.1687 75.0847C27.4867 74.8007 27.7267 74.5553 27.888 74.3487C28.0493 74.142 28.13 73.9313 28.13 73.7167C28.13 73.506 28.0553 73.3427 27.906 73.2267C27.7567 73.1107 27.558 73.0527 27.31 73.0527C27.07 73.0527 26.866 73.1167 26.698 73.2447C26.53 73.3693 26.418 73.536 26.362 73.7447L25.352 73.4567C25.436 73.1433 25.5753 72.874 25.77 72.6487C25.9647 72.4233 26.2027 72.2507 26.484 72.1307C26.7687 72.0107 27.0867 71.9507 27.436 71.9507C27.786 71.9507 28.0967 72.0107 28.368 72.1307C28.6427 72.2507 28.8573 72.426 29.012 72.6567C29.17 72.884 29.249 73.1527 29.249 73.4627C29.249 73.7607 29.186 74.0353 29.06 74.2867C28.934 74.5347 28.7747 74.7587 28.582 74.9587C28.3893 75.1587 28.1533 75.3807 27.874 75.6247L26.484 76.8867V76.9267H29V78.0167H28ZM32.5175 78.1287C32.0435 78.1287 31.6389 78.0193 31.3035 77.8007C30.9682 77.582 30.7149 77.282 30.5435 76.9007C30.3722 76.516 30.2865 76.08 30.2865 75.5927C30.2865 75.1053 30.3722 74.6707 30.5435 74.2887C30.7149 73.9067 30.9682 73.6067 31.3035 73.3887C31.6389 73.1707 32.0435 73.0617 32.5175 73.0617C32.9915 73.0617 33.3962 73.1707 33.7315 73.3887C34.0669 73.6067 34.3202 73.9067 34.4915 74.2887C34.6629 74.6707 34.7485 75.1053 34.7485 75.5927C34.7485 76.08 34.6629 76.516 34.4915 76.9007C34.3202 77.282 34.0669 77.582 33.7315 77.8007C33.3962 78.0193 32.9915 78.1287 32.5175 78.1287ZM32.5175 77.0267C32.8062 77.0267 33.0375 76.9107 33.2115 76.6787C33.3855 76.4467 33.4725 76.084 33.4725 75.5907C33.4725 75.0973 33.3855 74.736 33.2115 74.5067C33.0375 74.274 32.8062 74.1577 32.5175 74.1577C32.2289 74.1577 31.9975 74.274 31.8235 74.5067C31.6495 74.736 31.5625 75.0973 31.5625 75.5907C31.5625 76.084 31.6495 76.4467 31.8235 76.6787C31.9975 76.9107 32.2289 77.0267 32.5175 77.0267Z" fill="white"/>
</svg>