<svg width="100" height="100" viewBox="0 0 100 100" fill="none" xmlns="http://www.w3.org/2000/svg">
  <rect width="100" height="100" rx="8" fill="#111111"/>
  <circle cx="50" cy="50" r="30" fill="#444444"/>
  <path d="M50 20V50" stroke="#84cc16" stroke-width="5" stroke-linecap="round"/>
  <path d="M50 50L65 35" stroke="#84cc16" stroke-width="5" stroke-linecap="round"/>
  <path d="M50 50L35 65" stroke="#84cc16" stroke-width="5" stroke-linecap="round"/>
  <path d="M50 50L65 65" stroke="#84cc16" stroke-width="5" stroke-linecap="round"/>
  <path d="M50 50L35 35" stroke="#84cc16" stroke-width="5" stroke-linecap="round"/>
  <circle cx="50" cy="50" r="10" fill="#111111"/>
  <circle cx="50" cy="50" r="5" fill="#84cc16"/>
  <path d="M16 80H12.968V74.56H14.144V79.152H16V80ZM18.6179 80.096C18.1699 80.096 17.8059 79.984 17.5259 79.76C17.2459 79.536 17.1059 79.216 17.1059 78.8H18.3619C18.3779 78.976 18.4699 79.064 18.6379 79.064C18.7139 79.064 18.7699 79.048 18.8059 79.016C18.8459 78.984 18.8659 78.936 18.8659 78.872C18.8659 78.792 18.8339 78.728 18.7699 78.68C18.7059 78.632 18.6019 78.592 18.4579 78.56C18.3139 78.528 18.1699 78.488 18.0259 78.44C17.8819 78.392 17.7499 78.328 17.6299 78.248C17.5099 78.168 17.4099 78.064 17.3299 77.936C17.2499 77.8 17.2099 77.632 17.2099 77.432C17.2099 77.176 17.2699 76.96 17.3899 76.784C17.5139 76.608 17.6859 76.476 17.9059 76.388C18.1259 76.3 18.3819 76.256 18.6739 76.256C19.1379 76.256 19.5099 76.368 19.7899 76.592C20.0699 76.816 20.2099 77.136 20.2099 77.552H18.9539C18.9379 77.408 18.8459 77.336 18.6779 77.336C18.6099 77.336 18.5579 77.356 18.5219 77.396C18.4859 77.428 18.4679 77.472 18.4679 77.528C18.4679 77.608 18.5059 77.672 18.5819 77.72C18.6579 77.768 18.7619 77.808 18.8939 77.84C19.0299 77.872 19.1659 77.912 19.3019 77.96C19.4419 78.008 19.5699 78.072 19.6859 78.152C19.8059 78.232 19.9019 78.336 19.9739 78.464C20.0499 78.592 20.0879 78.76 20.0879 78.968C20.0879 79.224 20.0259 79.44 19.9019 79.616C19.7819 79.784 19.6099 79.912 19.3859 80C19.1659 80.064 18.9099 80.096 18.6179 80.096Z" fill="white"/>
</svg>