<svg width="100" height="100" viewBox="0 0 100 100" fill="none" xmlns="http://www.w3.org/2000/svg">
  <rect width="100" height="100" rx="8" fill="#111111"/>
  <path d="M20 40C20 40 30 25 40 40C50 55 60 40 60 40C60 40 70 25 80 40" stroke="#3b82f6" stroke-width="3" stroke-linecap="round"/>
  <path d="M20 55C20 55 30 40 40 55C50 70 60 55 60 55C60 55 70 40 80 55" stroke="#3b82f6" stroke-width="3" stroke-linecap="round"/>
  <path d="M20 70C20 70 30 55 40 70C50 85 60 70 60 70C60 70 70 55 80 70" stroke="#3b82f6" stroke-width="3" stroke-linecap="round"/>
  <path d="M35 20L35 30" stroke="#ec4899" stroke-width="3" stroke-linecap="round"/>
  <path d="M35 25L45 25" stroke="#ec4899" stroke-width="3" stroke-linecap="round"/>
  <path d="M65 20L65 30" stroke="#ec4899" stroke-width="3" stroke-linecap="round"/>
  <path d="M60 25L70 25" stroke="#ec4899" stroke-width="3" stroke-linecap="round"/>
  <path d="M80 80H77.952V78.48H80V80ZM82.7523 80.096C82.3043 80.096 81.9403 79.984 81.6603 79.76C81.3803 79.536 81.2403 79.216 81.2403 78.8H82.4963C82.5123 78.976 82.6043 79.064 82.7723 79.064C82.8483 79.064 82.9043 79.048 82.9403 79.016C82.9803 78.984 83.0003 78.936 83.0003 78.872C83.0003 78.792 82.9683 78.728 82.9043 78.68C82.8403 78.632 82.7363 78.592 82.5923 78.56C82.4483 78.528 82.3043 78.488 82.1603 78.44C82.0163 78.392 81.8843 78.328 81.7643 78.248C81.6443 78.168 81.5443 78.064 81.4643 77.936C81.3843 77.8 81.3443 77.632 81.3443 77.432C81.3443 77.176 81.4043 76.96 81.5243 76.784C81.6483 76.608 81.8203 76.476 82.0403 76.388C82.2603 76.3 82.5163 76.256 82.8083 76.256C83.2723 76.256 83.6443 76.368 83.9243 76.592C84.2043 76.816 84.3443 77.136 84.3443 77.552H83.0883C83.0723 77.408 82.9803 77.336 82.8123 77.336C82.7443 77.336 82.6923 77.356 82.6563 77.396C82.6203 77.428 82.6023 77.472 82.6023 77.528C82.6023 77.608 82.6403 77.672 82.7163 77.72C82.7923 77.768 82.8963 77.808 83.0283 77.84C83.1643 77.872 83.3003 77.912 83.4363 77.96C83.5763 78.008 83.7043 78.072 83.8203 78.152C83.9403 78.232 84.0363 78.336 84.1083 78.464C84.1843 78.592 84.2223 78.76 84.2223 78.968C84.2223 79.224 84.1603 79.44 84.0363 79.616C83.9163 79.784 83.7443 79.912 83.5203 80C83.3003 80.064 83.0443 80.096 82.7523 80.096Z" fill="white"/>
</svg>