<svg width="100" height="100" viewBox="0 0 100 100" fill="none" xmlns="http://www.w3.org/2000/svg">
  <rect width="100" height="100" rx="8" fill="#111111"/>
  <path d="M48 20V59" stroke="#f87171" stroke-width="4" stroke-linecap="round"/>
  <path d="M48 59L38 49" stroke="#f87171" stroke-width="4" stroke-linecap="round"/>
  <path d="M48 59L58 49" stroke="#f87171" stroke-width="4" stroke-linecap="round"/>
  <circle cx="48" cy="70" r="15" fill="#444444"/>
  <circle cx="48" cy="70" r="10" fill="#f87171"/>
  <path d="M72 30H76" stroke="#f87171" stroke-width="2" stroke-linecap="round"/>
  <path d="M72 40H78" stroke="#f87171" stroke-width="2" stroke-linecap="round"/>
  <path d="M72 50H80" stroke="#f87171" stroke-width="2" stroke-linecap="round"/>
  <path d="M72 60H76" stroke="#f87171" stroke-width="2" stroke-linecap="round"/>
  <path d="M72 70H78" stroke="#f87171" stroke-width="2" stroke-linecap="round"/>
  <path d="M20 76H27" stroke="#f87171" stroke-width="2" stroke-linecap="round"/>
  <path d="M23.5 72.5V79.5" stroke="#f87171" stroke-width="2" stroke-linecap="round"/>
  <path d="M16 81.088C15.616 81.088 15.28 81.016 14.992 80.872C14.704 80.728 14.48 80.528 14.32 80.272C14.16 80.016 14.072 79.728 14.056 79.408H15.248C15.264 79.568 15.32 79.696 15.416 79.792C15.512 79.888 15.64 79.936 15.8 79.936C15.96 79.936 16.08 79.888 16.16 79.792C16.24 79.688 16.28 79.536 16.28 79.336C16.28 79.136 16.232 78.984 16.136 78.88C16.04 78.776 15.904 78.724 15.728 78.724H15.232V77.776H15.72C15.864 77.776 15.976 77.724 16.056 77.62C16.144 77.516 16.188 77.376 16.188 77.2C16.188 77.04 16.152 76.92 16.08 76.84C16.008 76.752 15.904 76.708 15.768 76.708C15.632 76.708 15.52 76.756 15.432 76.852C15.352 76.94 15.304 77.064 15.288 77.224H14.096C14.128 76.568 14.3 76.08 14.612 75.76C14.932 75.44 15.36 75.28 15.896 75.28C16.24 75.28 16.536 75.352 16.784 75.496C17.04 75.632 17.236 75.824 17.372 76.072C17.508 76.312 17.576 76.588 17.576 76.9C17.576 77.196 17.512 77.444 17.384 77.644C17.264 77.836 17.1 77.968 16.892 78.04V78.08C17.164 78.152 17.368 78.292 17.504 78.5C17.648 78.708 17.72 78.964 17.72 79.268C17.72 79.612 17.644 79.916 17.492 80.18C17.348 80.444 17.136 80.652 16.856 80.804C16.584 80.956 16.264 81.032 15.896 81.032C15.512 81.088 15.28 81.088 16 81.088Z" fill="white"/>
</svg>